<svg width="19" height="16" viewBox="0 0 19 16" fill="none" xmlns="http://www.w3.org/2000/svg">
<path d="M1.83333 15.3334C1.32917 15.3334 0.897722 15.154 0.539 14.7953C0.180278 14.4365 0.000611111 14.0048 0 13.5V2.50002C0 1.99585 0.179667 1.56441 0.539 1.20569C0.898333 0.846965 1.32978 0.667298 1.83333 0.666687H16.5C17.0042 0.666687 17.4359 0.846354 17.7952 1.20569C18.1546 1.56502 18.3339 1.99646 18.3333 2.50002V13.5C18.3333 14.0042 18.154 14.4359 17.7952 14.7953C17.4365 15.1546 17.0048 15.334 16.5 15.3334H1.83333ZM9.16667 8.75627C9.24306 8.75627 9.32342 8.74466 9.40775 8.72144C9.49208 8.69821 9.57214 8.66399 9.64792 8.61877L16.1333 4.56252C16.2556 4.48613 16.3472 4.3908 16.4083 4.27652C16.4694 4.16224 16.5 4.03605 16.5 3.89794C16.5 3.59238 16.3701 3.36321 16.1104 3.21044C15.8507 3.05766 15.5833 3.0653 15.3083 3.23335L9.16667 7.08335L3.025 3.23335C2.75 3.0653 2.48264 3.06163 2.22292 3.22235C1.96319 3.38308 1.83333 3.60827 1.83333 3.89794C1.83333 4.05071 1.86389 4.18455 1.925 4.29944C1.98611 4.41433 2.07778 4.50202 2.2 4.56252L8.68542 8.61877C8.76181 8.6646 8.84217 8.69913 8.9265 8.72235C9.01083 8.74558 9.09089 8.75688 9.16667 8.75627Z" fill="#323232"/>
</svg>
