<svg width="16" height="22" viewBox="0 0 16 22" fill="none" xmlns="http://www.w3.org/2000/svg">
<path d="M11.1788 8.16908H6.97308V0H11.1788C13.4484 0 15.2946 1.83193 15.2946 4.08409C15.2946 6.33625 13.4484 8.16908 11.1788 8.16908ZM8.3215 6.83107H11.1788C12.705 6.83107 13.9462 5.59856 13.9462 4.085C13.9462 2.57143 12.7041 1.33893 11.1788 1.33893H8.3215V6.83107ZM8.3215 8.16908H4.11675C1.84708 8.16908 0.0009166 6.33716 0.0009166 4.085C0.0009166 1.83284 1.84708 0 4.11675 0H8.32242L8.3215 8.16908ZM4.11675 1.33802C2.5905 1.33802 1.34933 2.57052 1.34933 4.08409C1.34933 5.59766 2.5905 6.83107 4.11675 6.83107H6.974V1.33802H4.11675ZM8.3215 14.9992H4.11675C1.84708 14.9992 0.0009166 13.1673 0.0009166 10.9152C0.0009166 8.66299 1.84708 6.83107 4.11675 6.83107H8.3215V14.9992ZM4.11675 8.16908C2.5905 8.16908 1.34933 9.40159 1.34933 10.9152C1.34933 12.4287 2.59142 13.6612 4.11675 13.6612H6.974L6.97308 8.16908H4.11675ZM4.13875 21.8303C1.85717 21.8303 0 19.9984 0 17.7462C0 15.4941 1.84617 13.6621 4.11583 13.6621H8.3215V17.7017C8.3215 19.9784 6.44508 21.8303 4.13875 21.8303ZM4.11675 14.9992C3.38308 15.0002 2.67974 15.2898 2.16096 15.8046C1.64218 16.3194 1.3503 17.0173 1.34933 17.7453C1.34933 19.2598 2.60058 20.4914 4.13967 20.4914C5.70258 20.4914 6.97492 19.2398 6.97492 17.7007V14.9992H4.11675ZM11.1788 14.9992H11.0889C8.81925 14.9992 6.97308 13.1673 6.97308 10.9152C6.97308 8.66299 8.81925 6.83107 11.0889 6.83107H11.1788C13.4484 6.83107 15.2946 8.66299 15.2946 10.9152C15.2946 13.1673 13.4484 14.9992 11.1788 14.9992ZM11.0898 8.16908C9.56358 8.16908 8.32242 9.40159 8.32242 10.9152C8.32242 12.4287 9.5645 13.6612 11.0898 13.6612H11.1797C12.7059 13.6612 13.9471 12.4287 13.9471 10.9152C13.9471 9.40159 12.7041 8.16908 11.1788 8.16908H11.0898Z" fill="#F8F8F8"/>
</svg>
