<svg width="47" height="40" viewBox="0 0 47 40" fill="none" xmlns="http://www.w3.org/2000/svg">
<path fill-rule="evenodd" clip-rule="evenodd" d="M23.4542 0C10.7018 0 0.366013 9.17991 0.366013 20.5063C0.366013 29.5649 6.97952 37.2521 16.1556 39.966C17.3107 40.1511 17.7273 39.5199 17.7273 38.9771C17.7273 38.4898 17.7088 37.1987 17.7019 35.4902C11.2782 36.7279 9.92168 32.7393 9.92168 32.7393C8.87537 30.3708 7.35915 29.7396 7.35915 29.7396C5.26422 28.467 7.51888 28.4958 7.51888 28.4958C9.83835 28.6397 11.0536 30.6093 11.0536 30.6093C13.1138 33.7426 16.4611 32.838 17.7713 32.3137C17.982 30.9876 18.5838 30.083 19.2412 29.571C14.1162 29.055 8.72722 27.2951 8.72722 19.4351C8.72722 17.2003 9.6277 15.3663 11.0976 13.9354C10.8638 13.4152 10.0652 11.3284 11.3268 8.50761C11.3268 8.50761 13.2643 7.95455 17.6741 10.6068C19.5574 10.1517 21.5002 9.91943 23.4519 9.91595C25.4038 9.91876 27.3466 10.151 29.2298 10.6068C33.6419 7.9525 35.5771 8.50761 35.5771 8.50761C36.8387 11.3284 36.047 13.4152 35.8062 13.9354C37.2877 15.3663 38.1766 17.1982 38.1766 19.4351C38.1766 27.3156 32.7831 29.0468 27.6395 29.5546C28.4613 30.1878 29.202 31.4379 29.202 33.3499C29.202 36.0926 29.1742 38.3048 29.1742 38.9771C29.1742 39.526 29.5863 40.1634 30.7645 39.9619C39.9359 37.2439 46.5425 29.5628 46.5425 20.5063C46.5425 9.17991 36.2067 0 23.4542 0Z" fill="#F8F8F8"/>
</svg>
