<svg width="35" height="30" viewBox="0 0 35 30" fill="none" xmlns="http://www.w3.org/2000/svg">
<path fill-rule="evenodd" clip-rule="evenodd" d="M16.1234 0.487983C16.4885 0.175528 16.9837 0 17.5 0C18.0163 0 18.5115 0.175528 18.8766 0.487983L30.5592 10.4881L34.4534 13.8215C34.8081 14.1358 35.0044 14.5568 34.9999 14.9938C34.9955 15.4308 34.7907 15.8489 34.4297 16.1579C34.0687 16.4669 33.5803 16.6422 33.0698 16.646C32.5593 16.6498 32.0674 16.4818 31.7002 16.1782L31.1297 15.6898V26.6666C31.1297 27.5507 30.7194 28.3985 29.9891 29.0237C29.2588 29.6488 28.2683 30 27.2355 30H21.3942C20.8778 30 20.3826 29.8244 20.0174 29.5118C19.6522 29.1993 19.4471 28.7753 19.4471 28.3333V23.3333H15.5529V28.3333C15.5529 28.7753 15.3478 29.1993 14.9826 29.5118C14.6175 29.8244 14.1222 30 13.6058 30H7.76449C6.73168 30 5.74117 29.6488 5.01087 29.0237C4.28056 28.3985 3.87028 27.5507 3.87028 26.6666V15.6898L3.29978 16.1782C2.93255 16.4818 2.44071 16.6498 1.93018 16.646C1.41966 16.6422 0.931302 16.4669 0.570293 16.1579C0.209285 15.8489 0.00450992 15.4308 7.36056e-05 14.9938C-0.00436271 14.5568 0.191894 14.1358 0.546575 13.8215L4.44078 10.4881L16.1234 0.487983Z" fill="#8000FF"/>
</svg>
