<svg width="22" height="22" viewBox="0 0 22 22" fill="none" xmlns="http://www.w3.org/2000/svg">
<path d="M10.9915 5.33288C9.49323 5.33288 8.05638 5.92713 6.99697 6.98488C5.93757 8.04264 5.34241 9.47727 5.34241 10.9732C5.34241 12.4691 5.93757 13.9037 6.99697 14.9614C8.05638 16.0192 9.49323 16.6134 10.9915 16.6134C12.4897 16.6134 13.9265 16.0192 14.9859 14.9614C16.0453 13.9037 16.6405 12.4691 16.6405 10.9732C16.6405 9.47727 16.0453 8.04264 14.9859 6.98488C13.9265 5.92713 12.4897 5.33288 10.9915 5.33288ZM10.9915 14.6362C10.5095 14.6362 10.0323 14.5414 9.58703 14.3572C9.14178 14.1731 8.73721 13.9032 8.39642 13.5629C8.05564 13.2227 7.78532 12.8187 7.60088 12.3742C7.41645 11.9296 7.32153 11.4531 7.32153 10.9719C7.32153 10.4907 7.41645 10.0143 7.60088 9.5697C7.78532 9.12514 8.05564 8.72119 8.39642 8.38094C8.73721 8.04068 9.14178 7.77078 9.58703 7.58663C10.0323 7.40249 10.5095 7.30771 10.9915 7.30771C11.9648 7.30771 12.8982 7.69376 13.5865 8.38094C14.2747 9.06812 14.6614 10.0001 14.6614 10.9719C14.6614 11.9438 14.2747 12.8758 13.5865 13.5629C12.8982 14.2501 11.9648 14.6362 10.9915 14.6362Z" fill="#323232"/>
<path d="M16.864 6.44044C17.5914 6.44044 18.181 5.85173 18.181 5.12551C18.181 4.3993 17.5914 3.81059 16.864 3.81059C16.1367 3.81059 15.5471 4.3993 15.5471 5.12551C15.5471 5.85173 16.1367 6.44044 16.864 6.44044Z" fill="#323232"/>
<path d="M21.4173 3.78865C21.1344 3.05943 20.7022 2.39722 20.1483 1.84438C19.5944 1.29155 18.931 0.860278 18.2006 0.578177C17.3458 0.25781 16.4428 0.0845811 15.53 0.0658681C14.3535 0.0146373 13.9809 0 10.9976 0C8.01422 0 7.63183 -1.19209e-07 6.46513 0.0658681C5.55301 0.0836243 4.65064 0.256888 3.79698 0.578177C3.06634 0.859948 2.40276 1.2911 1.84881 1.84398C1.29486 2.39686 0.862785 3.05924 0.580298 3.78865C0.259368 4.64202 0.0862683 5.54371 0.068414 6.45509C0.0158818 7.62852 0 8.00056 0 10.9805C0 13.9592 -1.49012e-08 14.3385 0.068414 15.5059C0.0867392 16.4183 0.258996 17.3185 0.580298 18.1735C0.863578 18.9027 1.29607 19.5648 1.85016 20.1176C2.40424 20.6704 3.06771 21.1017 3.7982 21.384C4.65024 21.7172 5.55299 21.9029 6.46757 21.9329C7.64405 21.9841 8.01666 22 11 22C13.9833 22 14.3657 22 15.5324 21.9329C16.4452 21.9144 17.3481 21.7416 18.203 21.4218C18.9333 21.1391 19.5965 20.7074 20.1503 20.1544C20.7042 19.6015 21.1365 18.9393 21.4197 18.2101C21.741 17.3563 21.9133 16.4561 21.9316 15.5437C21.9841 14.3703 22 13.9982 22 11.0183C22 8.03837 22 7.66024 21.9316 6.4929C21.9174 5.56864 21.7434 4.65377 21.4173 3.78865ZM19.9293 15.4156C19.9214 16.1186 19.7929 16.815 19.5493 17.4746C19.3658 17.9489 19.085 18.3797 18.7248 18.7391C18.3646 19.0986 17.933 19.3788 17.4578 19.5617C16.8045 19.8037 16.1144 19.932 15.4176 19.941C14.257 19.9947 13.9296 20.0081 10.9536 20.0081C7.97512 20.0081 7.67092 20.0081 6.48834 19.941C5.79189 19.9325 5.10213 19.8042 4.44936 19.5617C3.97252 19.3799 3.53921 19.1002 3.17745 18.7407C2.8157 18.3812 2.53356 17.9499 2.34929 17.4746C2.10916 16.8221 1.98072 16.1339 1.96935 15.4388C1.91681 14.28 1.9046 13.9531 1.9046 10.9817C1.9046 8.00909 1.9046 7.70537 1.96935 6.5234C1.97724 5.82083 2.10575 5.12482 2.34929 4.46562C2.7219 3.50322 3.48545 2.74573 4.44936 2.37736C5.10245 2.13601 5.79201 2.00772 6.48834 1.998C7.65016 1.94555 7.97635 1.93092 10.9536 1.93092C13.9308 1.93092 14.2362 1.93092 15.4176 1.998C16.1145 2.00637 16.8046 2.13471 17.4578 2.37736C17.9329 2.56066 18.3645 2.84112 18.7246 3.20075C19.0848 3.56037 19.3657 3.99122 19.5493 4.46562C19.7894 5.11815 19.9179 5.80636 19.9293 6.50144C19.9818 7.66146 19.9952 7.98714 19.9952 10.9597C19.9952 13.9311 19.9952 14.2507 19.9427 15.4168L19.9293 15.4156Z" fill="#323232"/>
</svg>
