<svg width="44" height="40" viewBox="0 0 44 40" fill="none" xmlns="http://www.w3.org/2000/svg">
<path d="M22.042 9.69615C19.107 9.69615 16.2922 10.7766 14.2168 12.6998C12.1415 14.623 10.9755 17.2314 10.9755 19.9512C10.9755 22.671 12.1415 25.2794 14.2168 27.2026C16.2922 29.1258 19.107 30.2062 22.042 30.2062C24.977 30.2062 27.7919 29.1258 29.8672 27.2026C31.9426 25.2794 33.1085 22.671 33.1085 19.9512C33.1085 17.2314 31.9426 14.623 29.8672 12.6998C27.7919 10.7766 24.977 9.69615 22.042 9.69615ZM22.042 26.6112C21.0979 26.6112 20.163 26.4389 19.2908 26.1041C18.4185 25.7693 17.626 25.2785 16.9584 24.6599C16.2908 24.0412 15.7612 23.3068 15.3999 22.4985C15.0386 21.6902 14.8526 20.8239 14.8526 19.949C14.8526 19.0741 15.0386 18.2078 15.3999 17.3995C15.7612 16.5912 16.2908 15.8567 16.9584 15.2381C17.626 14.6194 18.4185 14.1287 19.2908 13.7939C20.163 13.4591 21.0979 13.2868 22.042 13.2868C23.9488 13.2868 25.7774 13.9887 27.1257 15.2381C28.474 16.4875 29.2314 18.182 29.2314 19.949C29.2314 21.7159 28.474 23.4105 27.1257 24.6599C25.7774 25.9093 23.9488 26.6112 22.042 26.6112Z" fill="#F8F8F8"/>
<path d="M33.5465 11.7099C34.9713 11.7099 36.1264 10.6395 36.1264 9.31913C36.1264 7.99874 34.9713 6.92836 33.5465 6.92836C32.1216 6.92836 30.9665 7.99874 30.9665 9.31913C30.9665 10.6395 32.1216 11.7099 33.5465 11.7099Z" fill="#F8F8F8"/>
<path d="M42.4662 6.88845C41.9122 5.56261 41.0655 4.35858 39.9804 3.35342C38.8953 2.34827 37.5957 1.56414 36.1648 1.05123C34.4903 0.468745 32.7213 0.153784 30.9331 0.11976C28.6283 0.0266132 27.8984 0 22.054 0C16.2097 0 15.4606 -2.23517e-07 13.175 0.11976C11.3881 0.152044 9.6204 0.467069 7.94809 1.05123C6.51676 1.56354 5.2168 2.34746 4.13162 3.35269C3.04643 4.35792 2.19999 5.56226 1.6466 6.88845C1.0179 8.44004 0.678796 10.0795 0.643819 11.7365C0.540909 13.87 0.509796 14.5465 0.509796 19.9645C0.509796 25.3804 0.509796 26.0701 0.643819 28.1925C0.679718 29.8514 1.01717 31.4881 1.6466 33.0428C2.20155 34.3685 3.04881 35.5724 4.13425 36.5775C5.2197 37.5825 6.51945 38.3668 7.95048 38.88C9.61963 39.4859 11.3881 39.8234 13.1798 39.878C15.4845 39.9712 16.2144 40 22.0588 40C27.9032 40 28.6523 40 30.9379 39.878C32.7259 39.8443 34.4948 39.5301 36.1695 38.9488C37.6001 38.4347 38.8994 37.6499 39.9844 36.6444C41.0693 35.639 41.9162 34.435 42.471 33.1093C43.1005 31.5569 43.4379 29.9202 43.4738 28.2613C43.5767 26.1277 43.6078 25.4513 43.6078 20.0333C43.6078 14.6152 43.6078 13.9277 43.4738 11.8053C43.4459 10.1248 43.1051 8.46141 42.4662 6.88845ZM39.5512 28.0284C39.5358 29.3065 39.2841 30.5727 38.8069 31.772C38.4475 32.6344 37.8973 33.4176 37.1916 34.0711C36.486 34.7247 35.6405 35.2341 34.7096 35.5666C33.4298 36.0068 32.0779 36.2401 30.7129 36.2564C28.4393 36.354 27.7979 36.3784 21.9679 36.3784C16.1331 36.3784 15.5371 36.3784 13.2205 36.2564C11.8561 36.2409 10.5049 36.0076 9.22609 35.5666C8.29197 35.2362 7.44311 34.7276 6.73443 34.074C6.02576 33.4203 5.47305 32.6361 5.11206 31.772C4.64165 30.5856 4.39004 29.3343 4.36775 28.0705C4.26484 25.9636 4.24091 25.3693 4.24091 19.9667C4.24091 14.562 4.24091 14.0098 4.36775 11.8607C4.38322 10.5833 4.63497 9.31785 5.11206 8.11932C5.84201 6.36948 7.3378 4.99224 9.22609 4.32247C10.5055 3.88366 11.8564 3.6504 13.2205 3.63273C15.4965 3.53737 16.1355 3.51076 21.9679 3.51076C27.8003 3.51076 28.3986 3.51076 30.7129 3.63273C32.078 3.64795 33.4301 3.88128 34.7096 4.32247C35.6405 4.65574 36.4858 5.16567 37.1914 5.81954C37.897 6.4734 38.4473 7.25676 38.8069 8.11932C39.2773 9.30572 39.5289 10.557 39.5512 11.8208C39.6541 13.9299 39.6805 14.5221 39.6805 19.9268C39.6805 25.3293 39.6805 25.9104 39.5776 28.0306L39.5512 28.0284Z" fill="#F8F8F8"/>
</svg>
