<svg width="22" height="22" viewBox="0 0 22 22" fill="none" xmlns="http://www.w3.org/2000/svg">
<path d="M0 0H22V22H0V0ZM20.1978 16.753C20.0374 15.7493 19.3838 14.9059 17.4451 14.1194C16.7704 13.8032 16.0206 13.5832 15.7978 13.0744C15.7144 12.7719 15.7016 12.6069 15.7557 12.4282C15.8932 11.836 16.5944 11.6582 17.1444 11.8232C17.5019 11.9332 17.8319 12.2082 18.0391 12.6482C18.9869 12.0285 18.9869 12.0285 19.6478 11.6169C19.4003 11.2319 19.2775 11.066 19.1107 10.9019C18.5332 10.2557 17.7641 9.92567 16.5128 9.95408L15.8666 10.0357C15.2469 10.1869 14.6566 10.5169 14.2991 10.9569C13.2541 12.1403 13.5557 14.2028 14.8207 15.0553C16.0719 15.9903 17.9016 16.1957 18.1353 17.0766C18.3553 18.1491 17.3378 18.4928 16.3332 18.3691C15.5898 18.2041 15.1782 17.8319 14.7244 17.1444L13.0469 18.1078C13.2394 18.5478 13.4594 18.7394 13.7894 19.1244C15.3844 20.7341 19.3719 20.6516 20.0878 18.2041C20.1144 18.1216 20.3078 17.5578 20.1557 16.6916L20.1978 16.753ZM11.9634 10.1118H9.90275C9.90275 11.8883 9.8945 13.6538 9.8945 15.433C9.8945 16.5623 9.95225 17.5991 9.768 17.9181C9.4655 18.5497 8.68633 18.469 8.3325 18.3581C7.9695 18.1784 7.78525 17.9309 7.57167 17.5743C7.51392 17.4781 7.47083 17.3947 7.45525 17.3947L5.78233 18.4259C6.06192 19.0034 6.46983 19.5002 6.996 19.8165C7.77975 20.284 8.833 20.4353 9.93575 20.1878C10.6535 19.9806 11.2722 19.5543 11.5958 18.8943C12.0633 18.0418 11.9643 16.9968 11.9598 15.8272C11.9708 13.9443 11.9598 12.0606 11.9598 10.1631L11.9634 10.1118Z" fill="#F8F8F8"/>
</svg>
