<svg width="44" height="40" viewBox="0 0 44 40" fill="none" xmlns="http://www.w3.org/2000/svg">
<path d="M5.57197 9.63134C8.4327 9.63134 10.7518 7.47529 10.7518 4.81567C10.7518 2.15605 8.4327 0 5.57197 0C2.71123 0 0.392151 2.15605 0.392151 4.81567C0.392151 7.47529 2.71123 9.63134 5.57197 9.63134Z" fill="#F8F8F8"/>
<path d="M15.6427 13.2805V39.9978H24.5654V26.7855C24.5654 23.2992 25.2709 19.923 29.9204 19.923C34.506 19.923 34.5628 23.9089 34.5628 27.0056V40H43.4902V25.3483C43.4902 18.1512 41.8236 12.6202 32.7754 12.6202C28.4313 12.6202 25.5194 14.8366 24.3286 16.9341H24.2079V13.2805H15.6427ZM1.10233 13.2805H10.0392V39.9978H1.10233V13.2805Z" fill="#F8F8F8"/>
</svg>
