<svg width="22" height="22" viewBox="0 0 22 22" fill="none" xmlns="http://www.w3.org/2000/svg">
<path d="M2.64411 5.29724C4.10441 5.29724 5.28822 4.11141 5.28822 2.64862C5.28822 1.18583 4.10441 0 2.64411 0C1.18381 0 0 1.18583 0 2.64862C0 4.11141 1.18381 5.29724 2.64411 5.29724Z" fill="#323232"/>
<path d="M7.78491 7.30427V21.9988H12.3396V14.732C12.3396 12.8146 12.6997 10.9576 15.0731 10.9576C17.4139 10.9576 17.4429 13.1499 17.4429 14.8531V22H22V13.9416C22 9.98315 21.1493 6.94111 16.5305 6.94111C14.313 6.94111 12.8266 8.16011 12.2188 9.31374H12.1571V7.30427H7.78491ZM0.362549 7.30427H4.92449V21.9988H0.362549V7.30427Z" fill="#323232"/>
</svg>
