<svg width="16" height="19" viewBox="0 0 16 19" fill="none" xmlns="http://www.w3.org/2000/svg">
<path d="M8.16671 18.548C7.95282 18.548 7.73893 18.5098 7.52504 18.4334C7.31115 18.357 7.12018 18.2424 6.95212 18.0896C5.95907 17.173 5.0806 16.2792 4.31671 15.4084C3.55282 14.5375 2.91512 13.6936 2.40362 12.8765C1.89212 12.0595 1.50254 11.2727 1.23487 10.5161C0.967208 9.75957 0.833374 9.03754 0.833374 8.35004C0.833374 6.05837 1.57068 4.23268 3.04529 2.87296C4.5199 1.51324 6.22704 0.833374 8.16671 0.833374C10.1064 0.833374 11.8138 1.51324 13.289 2.87296C14.7643 4.23268 15.5013 6.05837 15.5 8.35004C15.5 9.03754 15.3665 9.75957 15.0995 10.5161C14.8324 11.2727 14.4428 12.0595 13.9307 12.8765C13.4186 13.6936 12.7806 14.5375 12.0167 15.4084C11.2528 16.2792 10.3743 17.173 9.38129 18.0896C9.21323 18.2424 9.02226 18.357 8.80837 18.4334C8.59449 18.5098 8.3806 18.548 8.16671 18.548ZM8.16671 10C8.67087 10 9.10262 9.82068 9.46196 9.46196C9.82129 9.10324 10.0007 8.67149 10 8.16671C9.99943 7.66193 9.82007 7.23049 9.46196 6.87237C9.10385 6.51426 8.6721 6.3346 8.16671 6.33337C7.66132 6.33215 7.22987 6.51182 6.87237 6.87237C6.51487 7.23293 6.33521 7.66437 6.33337 8.16671C6.33154 8.66904 6.51121 9.10079 6.87237 9.46196C7.23354 9.82312 7.66499 10.0025 8.16671 10Z" fill="#323232"/>
</svg>
