<svg width="42" height="42" viewBox="0 0 42 42" fill="none" xmlns="http://www.w3.org/2000/svg">
<path d="M41.1077 32.4566L31.5023 22.8517C29.6075 20.9569 26.7776 20.5878 24.4973 21.7116L15.7532 12.9679V7.87423L5.25381 0L0.00410127 5.24949L7.87866 15.7485H12.9725L21.7166 24.4921C20.601 26.7724 20.9619 29.6022 22.8567 31.4969L32.4621 41.1018C33.6596 42.2994 35.5955 42.2994 36.7849 41.1018L41.1077 36.7792C42.2971 35.5817 42.2971 33.6459 41.1077 32.4566ZM27.2124 18.4552C29.5337 18.4552 31.7156 19.3575 33.3562 20.9979L34.9475 22.5892C36.2435 22.0232 37.4739 21.2358 38.5402 20.1695C41.5834 17.1265 42.617 12.8448 41.649 8.95694C41.4686 8.21873 40.5417 7.96446 40.0003 8.50581L33.8975 14.6083L28.3279 13.6815L27.401 8.1121L33.5038 2.00957C34.0452 1.46822 33.7827 0.541353 33.0362 0.3527C29.1482 -0.606972 24.8664 0.426521 21.8314 3.46138C19.4936 5.79904 18.3945 8.88312 18.4519 11.959L25.1863 18.6931C25.8507 18.5373 26.5397 18.4552 27.2124 18.4552ZM18.6898 25.1811L14.0389 20.5304L1.538 33.039C-0.512667 35.0895 -0.512667 38.4115 1.538 40.4621C3.58867 42.5126 6.91075 42.5126 8.96142 40.4621L19.0999 30.324C18.4765 28.6917 18.2878 26.9118 18.6898 25.1811ZM5.25381 38.715C4.17106 38.715 3.28517 37.8291 3.28517 36.7464C3.28517 35.6555 4.16285 34.7779 5.25381 34.7779C6.34476 34.7779 7.22245 35.6555 7.22245 36.7464C7.22245 37.8291 6.34476 38.715 5.25381 38.715Z" fill="white"/>
</svg>
