<svg width="42" height="42" viewBox="0 0 42 42" fill="none" xmlns="http://www.w3.org/2000/svg">
<path d="M21 42C18.13 42 15.4175 41.4484 12.8625 40.3452C10.3075 39.242 8.0766 37.737 6.1698 35.8302C4.263 33.9234 2.758 31.6925 1.6548 29.1375C0.5516 26.5825 0 23.87 0 21C0 18.095 0.5516 15.3741 1.6548 12.8373C2.758 10.3005 4.263 8.078 6.1698 6.1698C8.0766 4.2616 10.3075 2.7566 12.8625 1.6548C15.4175 0.553 18.13 0.0014 21 0C23.905 0 26.6266 0.5516 29.1648 1.6548C31.703 2.758 33.9248 4.263 35.8302 6.1698C37.7356 8.0766 39.2406 10.2991 40.3452 12.8373C41.4498 15.3755 42.0014 18.0964 42 21C42 23.87 41.4484 26.5825 40.3452 29.1375C39.242 31.6925 37.737 33.9241 35.8302 35.8323C33.9234 37.7405 31.7009 39.2455 29.1627 40.3473C26.6245 41.4491 23.9036 42 21 42ZM10.5 18.9C11.095 18.9 11.5941 18.6984 11.9973 18.2952C12.4005 17.892 12.6014 17.3936 12.6 16.8C12.5986 16.2064 12.397 15.708 11.9952 15.3048C11.5934 14.9016 11.095 14.7 10.5 14.7C9.905 14.7 9.4066 14.9016 9.0048 15.3048C8.603 15.708 8.4014 16.2064 8.4 16.8C8.3986 17.3936 8.6002 17.8927 9.0048 18.2973C9.4094 18.7019 9.9078 18.9028 10.5 18.9ZM16.8 12.6C17.395 12.6 17.8941 12.3984 18.2973 11.9952C18.7005 11.592 18.9014 11.0936 18.9 10.5C18.8986 9.9064 18.697 9.408 18.2952 9.0048C17.8934 8.6016 17.395 8.4 16.8 8.4C16.205 8.4 15.7066 8.6016 15.3048 9.0048C14.903 9.408 14.7014 9.9064 14.7 10.5C14.6986 11.0936 14.9002 11.5927 15.3048 11.9973C15.7094 12.4019 16.2078 12.6028 16.8 12.6ZM31.5 18.9C32.095 18.9 32.5941 18.6984 32.9973 18.2952C33.4005 17.892 33.6014 17.3936 33.6 16.8C33.5986 16.2064 33.397 15.708 32.9952 15.3048C32.5934 14.9016 32.095 14.7 31.5 14.7C30.905 14.7 30.4066 14.9016 30.0048 15.3048C29.603 15.708 29.4014 16.2064 29.4 16.8C29.3986 17.3936 29.6002 17.8927 30.0048 18.2973C30.4094 18.7019 30.9078 18.9028 31.5 18.9ZM21 25.2C22.155 25.2 23.1441 24.7891 23.9673 23.9673C24.7905 23.1455 25.2014 22.1564 25.2 21C25.2 20.545 25.13 20.0984 24.99 19.6602C24.85 19.222 24.64 18.8286 24.36 18.48L27.195 11.34C27.44 10.78 27.4491 10.2284 27.2223 9.6852C26.9955 9.142 26.6014 8.7486 26.04 8.505C25.515 8.26 24.9809 8.2516 24.4377 8.4798C23.8945 8.708 23.5186 9.1014 23.31 9.66L20.475 16.8C19.425 16.975 18.55 17.4566 17.85 18.2448C17.15 19.033 16.8 19.9514 16.8 21C16.8 22.155 17.2116 23.1441 18.0348 23.9673C18.858 24.7905 19.8464 25.2014 21 25.2ZM12.915 35.7C14.14 35 15.435 34.475 16.8 34.125C18.165 33.775 19.565 33.6 21 33.6C22.435 33.6 23.835 33.775 25.2 34.125C26.565 34.475 27.86 35 29.085 35.7L32.76 32.97C31.01 31.815 29.1375 30.9309 27.1425 30.3177C25.1475 29.7045 23.1 29.3986 21 29.4C18.9 29.4014 16.8525 29.708 14.8575 30.3198C12.8625 30.9316 10.99 31.815 9.24 32.97L12.915 35.7Z" fill="white"/>
</svg>
