<svg width="42" height="42" viewBox="0 0 42 42" fill="none" xmlns="http://www.w3.org/2000/svg">
<path d="M33.6 33.6C31.269 33.6 29.4 35.469 29.4 37.8C29.4 38.9139 29.8425 39.9822 30.6302 40.7698C31.4178 41.5575 32.4861 42 33.6 42C34.7139 42 35.7822 41.5575 36.5698 40.7698C37.3575 39.9822 37.8 38.9139 37.8 37.8C37.8 36.6861 37.3575 35.6178 36.5698 34.8302C35.7822 34.0425 34.7139 33.6 33.6 33.6ZM0 0V4.2H4.2L11.76 20.139L8.904 25.284C8.589 25.872 8.4 26.565 8.4 27.3C8.4 28.4139 8.8425 29.4822 9.63015 30.2698C10.4178 31.0575 11.4861 31.5 12.6 31.5H37.8V27.3H13.482C13.3428 27.3 13.2092 27.2447 13.1108 27.1462C13.0123 27.0478 12.957 26.9142 12.957 26.775C12.957 26.67 12.978 26.586 13.02 26.523L14.91 23.1H30.555C32.13 23.1 33.516 22.218 34.23 20.937L41.748 7.35C41.895 7.014 42 6.657 42 6.3C42 5.74305 41.7788 5.2089 41.3849 4.81508C40.9911 4.42125 40.457 4.2 39.9 4.2H8.841L6.867 0M12.6 33.6C10.269 33.6 8.4 35.469 8.4 37.8C8.4 38.9139 8.8425 39.9822 9.63015 40.7698C10.4178 41.5575 11.4861 42 12.6 42C13.7139 42 14.7822 41.5575 15.5698 40.7698C16.3575 39.9822 16.8 38.9139 16.8 37.8C16.8 36.6861 16.3575 35.6178 15.5698 34.8302C14.7822 34.0425 13.7139 33.6 12.6 33.6Z" fill="white"/>
</svg>
