<svg width="42" height="42" viewBox="0 0 42 42" fill="none" xmlns="http://www.w3.org/2000/svg">
<path d="M0 9.33333V4.66667C0 3.38333 0.4116 2.28511 1.2348 1.372C2.058 0.458889 3.0464 0.00155556 4.2 0H37.8C38.955 0 39.9441 0.457334 40.7673 1.372C41.5905 2.28667 42.0014 3.38489 42 4.66667V9.33333H37.8V4.66667H4.2V9.33333H0ZM12.6 42V37.3333H4.2C3.045 37.3333 2.0566 36.8768 1.2348 35.9637C0.413 35.0506 0.0014 33.9516 0 32.6667V28H4.2V32.6667H37.8V28H42V32.6667C42 33.95 41.5891 35.049 40.7673 35.9637C39.9455 36.8783 38.9564 37.3349 37.8 37.3333H29.4V42H12.6ZM5.88 18.6667L11.34 12.6L8.4 9.33333L0 18.6667L8.4 28L11.34 24.7333L5.88 18.6667ZM36.12 18.6667L30.66 24.7333L33.6 28L42 18.6667L33.6 9.33333L30.66 12.6L36.12 18.6667Z" fill="white"/>
</svg>
