<svg width="45" height="40" viewBox="0 0 45 40" fill="none" xmlns="http://www.w3.org/2000/svg">
<path fill-rule="evenodd" clip-rule="evenodd" d="M38.1788 5.8137C36.1436 3.96536 33.722 2.49976 31.0545 1.50182C28.387 0.503886 25.5265 -0.00655824 22.6387 6.36102e-05C10.5297 6.36102e-05 0.672112 8.89164 0.667218 19.8212C0.667218 23.3142 1.67794 26.7234 3.59903 29.7306L0.483673 40L12.1302 37.2422C15.3517 38.8245 18.961 39.6541 22.6289 39.6556H22.6387C34.7453 39.6556 44.6029 30.764 44.6078 19.8344C44.6161 17.2301 44.0522 14.6501 42.9487 12.2435C41.8452 9.83694 40.224 7.65157 38.1788 5.8137ZM22.6387 36.3104H22.6314C19.3607 36.3108 16.1501 35.5168 13.3367 34.0119L12.671 33.6542L5.75996 35.2904L7.60275 29.2118L7.16959 28.5891C5.34096 25.9625 4.37294 22.9229 4.37726 19.8212C4.38216 10.7375 12.5731 3.34738 22.6461 3.34738C25.045 3.34257 27.4211 3.76707 29.637 4.59633C31.8529 5.42558 33.8645 6.64311 35.5554 8.17846C37.2553 9.70648 38.6027 11.5233 39.5196 13.524C40.4366 15.5247 40.905 17.6695 40.8977 19.8344C40.8928 28.9181 32.7018 36.3104 22.6387 36.3104ZM32.6553 23.97C32.1047 23.7205 29.4078 22.5238 28.9037 22.3582C28.402 22.1926 28.0374 22.1109 27.6703 22.6055C27.3032 23.1 26.2509 24.2151 25.9303 24.5463C25.6097 24.8775 25.2891 24.9172 24.7409 24.6699C24.1927 24.4226 22.4234 23.8993 20.3261 22.2124C18.6937 20.8987 17.5925 19.278 17.2719 18.7812C16.9513 18.2844 17.2376 18.0173 17.5142 17.77C17.7613 17.5492 18.0623 17.1915 18.3364 16.9022C18.6105 16.613 18.7011 16.4076 18.8846 16.0764C19.0682 15.7452 18.9776 15.456 18.8381 15.2087C18.7011 14.9592 17.6023 12.5216 17.1446 11.5302C16.7017 10.5697 16.2489 10.6978 15.9112 10.6845C15.5614 10.6716 15.2114 10.6657 14.8613 10.6669C14.583 10.6733 14.3091 10.7315 14.0568 10.8379C13.8046 10.9443 13.5794 11.0965 13.3954 11.2851C12.8913 11.7819 11.4743 12.9786 11.4743 15.4162C11.4743 17.8539 13.4419 20.2098 13.716 20.541C13.9901 20.8722 17.5876 25.8733 23.0939 28.0194C24.4056 28.5295 25.4286 28.8342 26.2239 29.0638C27.5381 29.4414 28.7348 29.3862 29.6819 29.2603C30.7367 29.119 32.9294 28.0636 33.3871 26.9066C33.8447 25.7496 33.8447 24.7582 33.7077 24.5507C33.5706 24.3431 33.2011 24.2173 32.6553 23.97Z" fill="#F8F8F8"/>
</svg>
